<mxfile host="Electron" modified="2023-06-03T12:15:52.457Z" agent="Mozilla/5.0 (Windows NT 10.0; Win64; x64) AppleWebKit/537.36 (KHTML, like Gecko) draw.io/21.2.8 Chrome/112.0.5615.165 Electron/24.2.0 Safari/537.36" etag="jLOT4uUUN2n17Pja6Cg3" version="21.2.8" type="device">
  <diagram name="Página-1" id="GhlY6w8N5E88S8xbPUVy">
    <mxGraphModel dx="1036" dy="606" grid="1" gridSize="10" guides="1" tooltips="1" connect="1" arrows="1" fold="1" page="1" pageScale="1" pageWidth="827" pageHeight="1169" math="0" shadow="0">
      <root>
        <mxCell id="0" />
        <mxCell id="1" parent="0" />
        <mxCell id="rgf6PaC7uY9ZVnQxhaNT-1" value="Inicio de sesión" style="shape=umlFrame;whiteSpace=wrap;html=1;pointerEvents=0;width=121;height=30;" vertex="1" parent="1">
          <mxGeometry x="239" y="50" width="411" height="350" as="geometry" />
        </mxCell>
        <mxCell id="rgf6PaC7uY9ZVnQxhaNT-9" value="" style="rounded=0;orthogonalLoop=1;jettySize=auto;html=1;endArrow=none;endFill=0;" edge="1" parent="1" target="rgf6PaC7uY9ZVnQxhaNT-8">
          <mxGeometry relative="1" as="geometry">
            <mxPoint x="90" y="125" as="sourcePoint" />
          </mxGeometry>
        </mxCell>
        <mxCell id="rgf6PaC7uY9ZVnQxhaNT-2" value="Estudiante" style="shape=umlActor;verticalLabelPosition=bottom;verticalAlign=top;html=1;" vertex="1" parent="1">
          <mxGeometry x="70" y="120" width="30" height="60" as="geometry" />
        </mxCell>
        <mxCell id="rgf6PaC7uY9ZVnQxhaNT-14" style="rounded=0;orthogonalLoop=1;jettySize=auto;html=1;entryX=0;entryY=1;entryDx=0;entryDy=0;elbow=vertical;endArrow=none;endFill=0;" edge="1" parent="1" source="rgf6PaC7uY9ZVnQxhaNT-3" target="rgf6PaC7uY9ZVnQxhaNT-8">
          <mxGeometry relative="1" as="geometry" />
        </mxCell>
        <mxCell id="rgf6PaC7uY9ZVnQxhaNT-3" value="Docente" style="shape=umlActor;verticalLabelPosition=bottom;verticalAlign=top;html=1;" vertex="1" parent="1">
          <mxGeometry x="70" y="290" width="30" height="60" as="geometry" />
        </mxCell>
        <mxCell id="rgf6PaC7uY9ZVnQxhaNT-15" style="rounded=0;orthogonalLoop=1;jettySize=auto;html=1;entryX=0.943;entryY=0.78;entryDx=0;entryDy=0;entryPerimeter=0;elbow=vertical;endArrow=none;endFill=0;" edge="1" parent="1" source="rgf6PaC7uY9ZVnQxhaNT-4" target="rgf6PaC7uY9ZVnQxhaNT-8">
          <mxGeometry relative="1" as="geometry" />
        </mxCell>
        <mxCell id="rgf6PaC7uY9ZVnQxhaNT-4" value="Gmail" style="shape=umlActor;verticalLabelPosition=bottom;verticalAlign=top;html=1;" vertex="1" parent="1">
          <mxGeometry x="730" y="155" width="30" height="60" as="geometry" />
        </mxCell>
        <mxCell id="rgf6PaC7uY9ZVnQxhaNT-21" value="&amp;lt;&amp;lt;include&amp;gt;&amp;gt;" style="rounded=0;orthogonalLoop=1;jettySize=auto;html=1;dashed=1;" edge="1" parent="1" source="rgf6PaC7uY9ZVnQxhaNT-8" target="rgf6PaC7uY9ZVnQxhaNT-20">
          <mxGeometry relative="1" as="geometry" />
        </mxCell>
        <mxCell id="rgf6PaC7uY9ZVnQxhaNT-8" value="Iniciar sesión" style="ellipse;whiteSpace=wrap;html=1;verticalAlign=middle;" vertex="1" parent="1">
          <mxGeometry x="364" y="100" width="116" height="40" as="geometry" />
        </mxCell>
        <mxCell id="rgf6PaC7uY9ZVnQxhaNT-16" style="rounded=0;orthogonalLoop=1;jettySize=auto;html=1;endArrow=none;endFill=0;" edge="1" parent="1" source="rgf6PaC7uY9ZVnQxhaNT-11" target="rgf6PaC7uY9ZVnQxhaNT-12">
          <mxGeometry relative="1" as="geometry" />
        </mxCell>
        <mxCell id="rgf6PaC7uY9ZVnQxhaNT-11" value="Administrador" style="shape=umlActor;verticalLabelPosition=bottom;verticalAlign=top;html=1;" vertex="1" parent="1">
          <mxGeometry x="120" y="410" width="30" height="60" as="geometry" />
        </mxCell>
        <mxCell id="rgf6PaC7uY9ZVnQxhaNT-23" value="&amp;lt;&amp;lt;include&amp;gt;&amp;gt;" style="rounded=0;orthogonalLoop=1;jettySize=auto;html=1;dashed=1;" edge="1" parent="1" source="rgf6PaC7uY9ZVnQxhaNT-12" target="rgf6PaC7uY9ZVnQxhaNT-22">
          <mxGeometry relative="1" as="geometry" />
        </mxCell>
        <mxCell id="rgf6PaC7uY9ZVnQxhaNT-24" value="&amp;lt;&amp;lt;extends&amp;gt;&amp;gt;" style="rounded=0;orthogonalLoop=1;jettySize=auto;html=1;entryX=0;entryY=1;entryDx=0;entryDy=0;dashed=1;" edge="1" parent="1" source="rgf6PaC7uY9ZVnQxhaNT-12" target="rgf6PaC7uY9ZVnQxhaNT-20">
          <mxGeometry relative="1" as="geometry" />
        </mxCell>
        <mxCell id="rgf6PaC7uY9ZVnQxhaNT-12" value="Registrar usuario" style="ellipse;whiteSpace=wrap;html=1;verticalAlign=middle;" vertex="1" parent="1">
          <mxGeometry x="310" y="320" width="129" height="40" as="geometry" />
        </mxCell>
        <mxCell id="rgf6PaC7uY9ZVnQxhaNT-20" value="Consultar usuario" style="ellipse;whiteSpace=wrap;html=1;verticalAlign=middle;" vertex="1" parent="1">
          <mxGeometry x="364" y="205" width="129" height="40" as="geometry" />
        </mxCell>
        <mxCell id="rgf6PaC7uY9ZVnQxhaNT-22" value="Registrar rol de estudiante o docente" style="ellipse;whiteSpace=wrap;html=1;verticalAlign=middle;" vertex="1" parent="1">
          <mxGeometry x="490" y="230" width="140" height="70" as="geometry" />
        </mxCell>
      </root>
    </mxGraphModel>
  </diagram>
</mxfile>
